<svg width="19" height="18" viewBox="0 0 19 18" fill="none" xmlns="http://www.w3.org/2000/svg">
<path fill-rule="evenodd" clip-rule="evenodd" d="M9.2126 0C4.17992 0 0.100098 3.8988 0.100098 8.70829C0.100098 13.5177 4.17992 17.4166 9.2126 17.4166C14.2453 17.4166 18.3251 13.5177 18.3251 8.70829C18.3251 3.8988 14.2453 0 9.2126 0ZM9.2126 15.6749C5.1929 15.6749 1.9226 12.5497 1.9226 8.70829C1.9226 4.8669 5.1929 1.74166 9.2126 1.74166C13.2323 1.74166 16.5026 4.8669 16.5026 8.70829C16.5026 12.5497 13.2323 15.6749 9.2126 15.6749ZM10.3537 5.22497C10.3537 5.85636 9.87262 6.31351 9.22186 6.31351C8.54477 6.31351 8.07553 5.85636 8.07553 5.2129C8.07553 4.59445 8.55747 4.13644 9.22186 4.13644C9.87262 4.13644 10.3537 4.59445 10.3537 5.22497ZM8.30334 7.83746H10.1258V13.0624H8.30334V7.83746Z" fill="#E5FAFF"/>
</svg>
