<svg width="24" height="18" viewBox="0 0 24 18" fill="none" xmlns="http://www.w3.org/2000/svg">
<rect x="0.5" y="0.5" width="23" height="17" stroke="white"/>
<path d="M9.05682 13V4.27273H12.0057C12.6875 4.27273 13.2472 4.3892 13.6847 4.62216C14.1222 4.85227 14.446 5.16903 14.6562 5.57244C14.8665 5.97585 14.9716 6.43466 14.9716 6.94886C14.9716 7.46307 14.8665 7.91903 14.6562 8.31676C14.446 8.71449 14.1236 9.02699 13.6889 9.25426C13.2543 9.47869 12.6989 9.59091 12.0227 9.59091H9.63636V8.63636H11.9886C12.4545 8.63636 12.8295 8.56818 13.1136 8.43182C13.4006 8.29545 13.608 8.10227 13.7358 7.85227C13.8665 7.59943 13.9318 7.2983 13.9318 6.94886C13.9318 6.59943 13.8665 6.29403 13.7358 6.03267C13.6051 5.77131 13.3963 5.5696 13.1094 5.42756C12.8224 5.28267 12.4432 5.21023 11.9716 5.21023H10.1136V13H9.05682ZM13.1648 9.07955L15.3125 13H14.0852L11.9716 9.07955H13.1648Z" fill="white"/>
</svg>
