<svg width="25" height="19" viewBox="0 0 25 19" fill="none" xmlns="http://www.w3.org/2000/svg">
<rect x="0.892578" y="0.5" width="23.022" height="17" stroke="white"/>
<path d="M5.45281 14V5.27273H8.40168C9.08634 5.27273 9.646 5.39631 10.0807 5.64347C10.5182 5.88778 10.842 6.21875 11.0522 6.63636C11.2625 7.05398 11.3676 7.51989 11.3676 8.03409C11.3676 8.5483 11.2625 9.01562 11.0522 9.43608C10.8449 9.85653 10.5238 10.1918 10.0892 10.4418C9.65452 10.6889 9.0977 10.8125 8.41872 10.8125H6.30509V9.875H8.38463C8.85338 9.875 9.2298 9.79403 9.51389 9.6321C9.79798 9.47017 10.004 9.25142 10.1318 8.97585C10.2625 8.69744 10.3278 8.38352 10.3278 8.03409C10.3278 7.68466 10.2625 7.37216 10.1318 7.09659C10.004 6.82102 9.79656 6.60511 9.50963 6.44886C9.2227 6.28977 8.84202 6.21023 8.36759 6.21023H6.50963V14H5.45281ZM19.0359 8C18.9422 7.71307 18.8186 7.45597 18.6652 7.22869C18.5146 6.99858 18.3342 6.80256 18.124 6.64062C17.9166 6.47869 17.6808 6.35511 17.4166 6.26989C17.1524 6.18466 16.8626 6.14205 16.5473 6.14205C16.0302 6.14205 15.5601 6.27557 15.1368 6.54261C14.7135 6.80966 14.3768 7.20312 14.1268 7.72301C13.8768 8.2429 13.7518 8.88068 13.7518 9.63636C13.7518 10.392 13.8782 11.0298 14.1311 11.5497C14.3839 12.0696 14.7263 12.4631 15.1581 12.7301C15.5899 12.9972 16.0757 13.1307 16.6155 13.1307C17.1155 13.1307 17.5558 13.0241 17.9365 12.8111C18.32 12.5952 18.6183 12.2912 18.8314 11.8991C19.0473 11.5043 19.1552 11.0398 19.1552 10.5057L19.4791 10.5739H16.8541V9.63636H20.178V10.5739C20.178 11.2926 20.0245 11.9176 19.7177 12.4489C19.4138 12.9801 18.9933 13.392 18.4564 13.6847C17.9223 13.9744 17.3086 14.1193 16.6155 14.1193C15.8427 14.1193 15.1638 13.9375 14.5785 13.5739C13.9961 13.2102 13.5416 12.6932 13.2149 12.0227C12.891 11.3523 12.7291 10.5568 12.7291 9.63636C12.7291 8.94602 12.8214 8.32528 13.0061 7.77415C13.1936 7.22017 13.4578 6.74858 13.7987 6.35938C14.1396 5.97017 14.543 5.67188 15.0089 5.46449C15.4748 5.2571 15.9876 5.15341 16.5473 5.15341C17.0075 5.15341 17.4365 5.22301 17.8342 5.36222C18.2348 5.49858 18.5913 5.69318 18.9038 5.94602C19.2191 6.19602 19.4819 6.49574 19.6922 6.84517C19.9024 7.19176 20.0473 7.5767 20.1268 8H19.0359Z" fill="white"/>
</svg>
